<?xml version="1.0" encoding="utf-8"?>
<!-- Generator: Adobe Illustrator 16.0.0, SVG Export Plug-In . SVG Version: 6.00 Build 0)  -->
<!DOCTYPE svg PUBLIC "-//W3C//DTD SVG 1.1//EN" "http://www.w3.org/Graphics/SVG/1.1/DTD/svg11.dtd">
<svg version="1.1" id="Calque_1" xmlns="http://www.w3.org/2000/svg" xmlns:xlink="http://www.w3.org/1999/xlink" x="0px" y="0px"
	 width="587.82px" height="842.03px" viewBox="3.763 0.024 587.82 842.03" enable-background="new 3.763 0.024 587.82 842.03"
	 xml:space="preserve">
<path d="M591.455,66.114c-0.328-1.315-0.986-2.467-2.139-3.124L495.408,0.822c-2.303-1.479-5.264-0.822-6.742,1.316L26.193,700.123
	l0,0c-1.151,0.822-2.138,2.303-2.303,3.782l-13.486,90.948l-6.579,40.294c-0.329,2.303,0.658,4.605,2.631,5.921
	c0.987,0.658,2.138,0.986,3.289,0.986c1.151,0,2.138-0.328,3.125-0.986l24.176-15.295l88.975-54.273
	c1.48-0.986,2.467-2.467,2.632-4.276L590.796,69.897C591.455,68.746,591.783,67.43,591.455,66.114z M54.48,801.596l-30.59-20.229
	l9.868-66.937l78.449,51.97L54.48,801.596z"/>
<path fill="#FFFFFF" d="M523.203,20.558c-0.164-0.494-0.33-0.822-0.658-0.987l-9.703-6.414c-0.658-0.493-1.645-0.329-2.139,0.493
	L45.271,715.911c-0.494,0.658-0.329,1.645,0.493,2.139l9.704,6.414c0.329,0.164,0.493,0.328,0.822,0.328c0.165,0,0.165,0,0.329,0
	c0.493-0.164,0.822-0.328,0.987-0.657L523.039,21.874C523.203,21.381,523.203,20.886,523.203,20.558z"/>
</svg>
