<?xml version="1.0" encoding="utf-8"?>
<!-- Generator: Adobe Illustrator 16.0.0, SVG Export Plug-In . SVG Version: 6.00 Build 0)  -->
<!DOCTYPE svg PUBLIC "-//W3C//DTD SVG 1.1//EN" "http://www.w3.org/Graphics/SVG/1.1/DTD/svg11.dtd">
<svg version="1.1" id="Calque_1" xmlns="http://www.w3.org/2000/svg" xmlns:xlink="http://www.w3.org/1999/xlink" x="0px" y="0px"
	 width="595.504px" height="782.676px" viewBox="-0.224 29.607 595.504 782.676"
	 enable-background="new -0.224 29.607 595.504 782.676" xml:space="preserve">
<path d="M297.64,412.447c86.988,0,157.652-85.646,157.652-191.42c0-105.772-23.256-191.42-157.652-191.42
	s-157.653,85.647-157.653,191.42C139.987,326.801,210.651,412.447,297.64,412.447z"/>
<path d="M0,704.72C0,698.236,0,702.709,0,704.72z"/>
<path d="M595.281,709.64C595.281,707.851,595.281,697.342,595.281,709.64z"/>
<path d="M594.833,696.894c-2.908-184.041-27.059-236.592-211.1-269.911c0,0-25.939,33.096-86.317,33.096
	s-86.318-33.096-86.318-33.096C29.071,459.855,3.578,511.512,0.224,690.856C0,705.391-0.224,706.286-0.224,704.498
	c0,3.13,0,9.168,0,19.455c0,0,43.83,88.33,297.64,88.33c253.81,0,297.64-88.33,297.64-88.33c0-6.709,0-11.182,0-14.313
	C595.281,710.759,595.056,708.746,594.833,696.894L594.833,696.894z"/>
</svg>
