<?xml version="1.0" encoding="utf-8"?>
<!-- Generator: Adobe Illustrator 16.0.0, SVG Export Plug-In . SVG Version: 6.00 Build 0)  -->
<!DOCTYPE svg PUBLIC "-//W3C//DTD SVG 1.1//EN" "http://www.w3.org/Graphics/SVG/1.1/DTD/svg11.dtd">
<svg version="1.1" id="Calque_1" xmlns="http://www.w3.org/2000/svg" xmlns:xlink="http://www.w3.org/1999/xlink" x="0px" y="0px"
	 width="595.113px" height="594.446px" viewBox="0 123.763 595.113 594.446" enable-background="new 0 123.763 595.113 594.446"
	 xml:space="preserve">
<path d="M293.219,625.198c-54.139-2.336-100.687-21.856-138.81-60.063c-38.039-38.206-57.393-84.671-59.478-138.81
	c-6.34,0-12.68,0-18.936,0c-6.34,0-12.68,0-19.02,0c-6.257,0-12.513,0-18.853,0s-12.68,0-19.02,0s-12.68,0-19.103,0
	c0-3.337,0-6.507,0-9.594c0.083-0.083,0.083-0.083,0.167-0.167c0.083-0.083,0.083-0.083,0.167-0.083c0.083,0,0.167,0,0.167,0
	c0.167,0,0.25,0,0.417,0c0.083,0,0.167,0,0.167,0c0.083,0,0.167,0,0.167,0c0.167,0,0.417,0,0.584,0c30.615,0,61.229,0,91.928,0
	c0.083,0,0.167,0,0.167,0c0.083,0,0.167,0,0.167,0c0.083,0,0.167,0,0.167,0c0.083,0,0.167,0,0.167,0
	c0.083,0,0.083-0.083,0.417-0.167c2.336-53.555,21.856-99.937,59.895-137.976c38.04-37.956,84.42-57.309,138.226-59.562
	c0-31.699,0-63.231,0-95.015c3.337,0,6.507,0,9.677,0c0.082,0.084,0.166,0.084,0.166,0.167c0,0.084,0.084,0.084,0.084,0.167
	c0,0.167,0.084,0.25,0.084,0.417c0,0.084,0,0.167,0,0.167c0,0.083,0,0.167,0,0.167c0,0.167,0,0.417,0,0.584
	c0,30.781,0,61.563,0,92.262c0,0.083,0,0.167,0,0.167c0,0.083,0,0.166,0,0.166c0,0.084,0,0.167,0,0.167
	c0,0.084,0.082,0.084,0.166,0.417c53.639,2.086,100.186,21.355,138.393,59.312c38.289,37.956,57.809,84.42,60.229,138.393
	c5.172,0.167,10.344,0.084,15.516,0.084s10.262,0,15.434,0s10.428,0,15.6,0s10.428,0,15.6,0s10.26,0,15.432,0s10.428,0,15.766,0
	c0,3.336,0,6.507,0,9.843c-31.031,0-62.063,0-93.262,0c-2.086,54.223-21.523,100.854-59.813,139.144
	c-38.289,38.206-85.004,57.644-139.143,59.813c0,31.031,0,61.98,0,93.012c-3.338,0-6.507,0-9.927,0
	C293.219,687.261,293.219,656.313,293.219,625.198z M293.052,521.174c3.42,0,6.756,0,10.178,0l-0.084-0.083
	c0,30.531,0,60.979,0,91.511c0,0.751,0.084,1.501,0.084,2.169c0,0.083,0.082,0.083,0.082,0.167c0.084,0.083,0.084,0.083,0.25,0.25
	c34.787-1.085,67.154-10.511,96.852-29.03c34.535-21.521,59.895-51.053,76.078-88.424c9.844-22.69,14.932-46.465,15.432-71.407
	c-15.85,0-31.449,0-47.049,0c-15.682,0-31.281,0-47.215,0c0-3.504,0-6.674,0-9.844c1.002,0,2.002-0.083,3.004-0.083
	c29.447,0,58.977,0,88.424,0c0.834,0,1.668,0,2.502,0c1.418-8.259-3.836-38.707-9.51-55.475
	c-10.344-30.614-27.193-57.059-50.635-79.248c-23.607-22.356-51.219-37.872-82.668-46.381c-14.934-4.005-30.031-6.257-45.631-6.591
	c0,1.085,0,1.836,0,2.67c0,29.78,0,59.645,0,89.426c0,0.667,0,1.334,0,2.002c-3.338,0-6.674,0-10.094,0
	c0-4.672,0.083-9.343,0.083-14.015c0-25.86,0-51.637,0-77.497c0-0.834,0-1.668-0.083-2.502
	c-104.691,2.252-186.859,90.093-187.777,187.693c0.834,0,1.668,0,2.502,0c29.614,0,59.228,0,88.841,0c0.918,0,1.835,0,2.836,0.083
	c-0.083,3.254-0.167,6.424-0.25,9.928c-31.449,0-62.731,0-94.181,0c0.5,20.604,4.004,40.375,10.845,59.562
	c11.345,31.866,29.697,58.978,55.057,81.25c24.692,21.689,53.138,36.037,85.171,43.378c12.763,2.92,33.869,5.172,37.039,4.171
	c0-0.667,0-1.334,0-2.002c0-29.947,0-59.895,0-89.926C293.136,522.342,293.136,521.758,293.052,521.174L293.052,521.174z"/>
<path d="M303.23,521.174c0-0.834-0.084-1.752-0.084-2.586c0-29.78,0-59.645,0-89.426c0-0.751,0-1.585,0-2.336
	c1.502-0.5,91.762-0.584,94.43-0.166c-0.166,2.002-0.25,4.004-0.416,6.089c-1.586,14.182-5.84,27.528-13.264,39.708
	c-15.266,25.025-37.205,40.625-65.902,46.631c-4.588,0.918-9.258,1.252-13.848,1.836C303.814,520.924,303.48,521.007,303.23,521.174
	C303.146,521.091,303.23,521.174,303.23,521.174z"/>
<path d="M293.136,521.091c-2.169-0.251-4.338-0.584-6.507-0.835c-17.935-2.169-34.202-8.675-48.467-19.77
	c-20.271-15.684-32.7-36.204-37.372-61.48c-0.667-3.754-0.918-7.675-1.335-11.512c0-0.334,0-0.668,0.083-1.085
	c31.199,0,62.314,0,93.597,0c0,0.751,0.083,1.335,0.083,2.002c0,30.115,0,60.313,0,90.427
	C293.136,519.756,293.136,520.423,293.136,521.091C293.052,521.174,293.136,521.091,293.136,521.091z"/>
<path d="M303.146,322.802c2.252,0.25,4.504,0.5,6.756,0.751c41.127,4.838,74.41,33.951,84.756,73.909
	c1.5,5.923,2.418,12.013,2.918,18.102c0,0.334,0.084,0.668,0.168,1.001c-0.668,0-1.336-0.083-2.002-0.083
	c-29.947,0-59.895,0-89.844,0c-0.75,0-1.584,0-2.586,0c0-0.918-0.082-1.668-0.082-2.419c0-17.769,0-35.453,0-53.222
	C303.146,348.162,303.146,335.482,303.146,322.802z"/>
<path d="M199.456,416.565c1.752-27.111,12.596-49.885,32.617-68.153c12.096-11.095,26.277-18.519,42.21-22.523
	c5.589-1.418,11.178-2.335,16.934-2.669c0.667,0,1.251-0.25,1.919-0.334c0,30.615,0,61.229,0,91.845
	c0,0.501-0.083,1.085-0.083,1.835c-0.918,0-1.752,0-2.586,0c-29.53,0-59.061,0-88.674,0
	C201.041,416.482,200.207,416.482,199.456,416.565z"/>
</svg>
