<?xml version="1.0" encoding="utf-8"?>
<!-- Generator: Adobe Illustrator 22.1.0, SVG Export Plug-In . SVG Version: 6.00 Build 0)  -->
<svg version="1.1" id="Capa_1" xmlns="http://www.w3.org/2000/svg" xmlns:xlink="http://www.w3.org/1999/xlink" x="0px" y="0px"
	 viewBox="0 0 443.5 443.8" style="enable-background:new 0 0 443.5 443.8;" xml:space="preserve">
<g>
	<g>
		<path d="M375.4,62.4c-87.8-85.1-228-82.8-313.1,5.1C22.2,108.9-0.1,164.3,0,221.9c0,9.4,7.6,17.1,17.1,17.1s17.1-7.6,17.1-17.1
			c0-103.7,84.1-187.7,187.8-187.7c52.7,0,102.9,22.1,138.4,61l37.6,23.5c7-2.3,11.7-8.9,11.7-16.2L375.4,62.4z"/>
	</g>
</g>
<g>
	<g>
		<path d="M426.6,204.9c-9.4,0-17.1,7.6-17.1,17.1c0,103.7-84.1,187.7-187.8,187.7c-52.7,0-102.9-22.1-138.4-61l-37.6-23.5
			c-7,2.3-11.7,8.9-11.7,16.2l34.1,40.1c87.9,85.1,228.1,82.8,313.1-5.1c40.1-41.4,62.5-96.8,62.3-154.5
			C443.7,212.5,436.1,204.9,426.6,204.9z"/>
	</g>
</g>
<path d="M424.2,134.5l-7.4-77.7c-0.6-6.3-8.1-9.3-12.9-5.2l-68.4,58.8c-4.8,4.1-2.9,12,3.2,13.5l75.7,18.9
	C419.7,144.1,424.7,139.8,424.2,134.5z"/>
<path d="M16.4,305.5l7.4,77.7c0.6,6.3,8.1,9.3,12.9,5.2l68.4-58.8c4.8-4.1,2.9-12-3.2-13.5l-75.7-18.9
	C20.8,295.8,15.8,300.1,16.4,305.5z"/>
</svg>
