<?xml version="1.0" encoding="utf-8"?>
<!-- Generator: Adobe Illustrator 22.1.0, SVG Export Plug-In . SVG Version: 6.00 Build 0)  -->
<svg version="1.1" id="Calque_1" xmlns="http://www.w3.org/2000/svg" xmlns:xlink="http://www.w3.org/1999/xlink" x="0px" y="0px"
	 viewBox="0 0 239.3 269.5" style="enable-background:new 0 0 239.3 269.5;" xml:space="preserve">
<circle cx="120" cy="42.6" r="32"/>
<path d="M170.7,133.4c0-24.2-22.3-43.9-49.9-43.9s-49.9,19.6-49.9,43.9c0,0.7,0.1,1.4,0.1,2.1c-0.1,0.3-0.1,0.5-0.1,0.5v124
	c0,5.3,3.2,9.5,7.1,9.5h85.6c3.9,0,7.1-4.2,7.1-9.5V135c0,0,0-0.1-0.1-0.3C170.7,134.3,170.7,133.9,170.7,133.4z"/>
<circle cx="40.2" cy="26.3" r="26.3"/>
<circle cx="197.8" cy="26.3" r="26.3"/>
<path d="M239,99.2c-0.7-19.4-18.5-34.8-40.6-34.8c-19.3,0-35.3,11.8-39.5,27.7c-0.4,0.8-0.7,1.6-1,2.5c12.1,8.1,19.7,20.8,19.7,35.2
	c0,0.5,0,0.8,0,1.3c0,0.3,0,0.3,0,0.3v80.1h55.9c3.2,0,5.8-3.4,5.8-7.9V100.1C239.2,100.1,239.1,99.7,239,99.2z"/>
<path d="M40.7,64.6c-22.6,0-40.7,16-40.7,36c0,0.5,0.1,1,0.1,1.5c0,0.2-0.1,0.4-0.1,0.4v101.1c0,4.2,2.6,7.6,5.8,7.6H63v-77.7
	c0,0,0-0.3,0-0.5c0-0.8,0-1.6,0-2.1c0.3-13.9,7.4-26,18.1-33.9C79.3,78.8,61.7,64.6,40.7,64.6z"/>
</svg>
