<?xml version="1.0" encoding="utf-8"?>
<!-- Generator: Adobe Illustrator 22.1.0, SVG Export Plug-In . SVG Version: 6.00 Build 0)  -->
<svg version="1.1" id="Calque_1" xmlns="http://www.w3.org/2000/svg" xmlns:xlink="http://www.w3.org/1999/xlink" x="0px" y="0px"
	 viewBox="0 0 160.8 234.7" style="enable-background:new 0 0 160.8 234.7;" xml:space="preserve">
<g>
	<path d="M93.4,0h-26c-0.1,2.8-1.7,8.3-5.9,8.3h-7.3v18h52.3v-18h-7.3C95,8.3,93.5,2.8,93.4,0z"/>
</g>
<path d="M126.9,69.1H64.2c-2.5,0-4.5-2-4.5-4.5c0-2.5,2-4.5,4.5-4.5h62.7c2.5,0,4.5,2,4.5,4.5C131.4,67.1,129.4,69.1,126.9,69.1z"/>
<path d="M127.2,111.6H64.5c-2.5,0-4.5-2-4.5-4.5s2-4.5,4.5-4.5h62.7c2.5,0,4.5,2,4.5,4.5S129.7,111.6,127.2,111.6z"/>
<path d="M127.2,154.1H64.5c-2.5,0-4.5-2-4.5-4.5s2-4.5,4.5-4.5h62.7c2.5,0,4.5,2,4.5,4.5S129.7,154.1,127.2,154.1z"/>
<path d="M127.2,196.5H64.5c-2.5,0-4.5-2-4.5-4.5s2-4.5,4.5-4.5h62.7c2.5,0,4.5,2,4.5,4.5S129.7,196.5,127.2,196.5z"/>
<path d="M37.5,72.5c-1.1,0-2.1-0.6-2.6-1.6c-0.5-0.9-3-2.7-4.9-3.7c-1.5-0.8-2.1-2.6-1.3-4c0.8-1.5,2.6-2.1,4-1.3
	c0.5,0.3,2.1,1.1,3.8,2.3c7.9-18.8,8.9-18.8,11-18.8c1.7,0,3,1.3,3,3c0,1-0.5,1.8-1.2,2.4c-1.3,2-5.6,11.6-9,19.8
	c-0.4,1.1-1.5,1.8-2.6,1.8C37.6,72.5,37.6,72.5,37.5,72.5z M47.4,51.5C47.4,51.5,47.4,51.5,47.4,51.5C47.4,51.5,47.4,51.5,47.4,51.5
	z M47.4,51.5C47.4,51.5,47.4,51.5,47.4,51.5C47.4,51.5,47.4,51.5,47.4,51.5z"/>
<path d="M37.5,157.1c-1.1,0-2.1-0.6-2.6-1.6c-0.5-0.9-3-2.7-4.9-3.7c-1.5-0.8-2.1-2.6-1.3-4s2.6-2.1,4-1.3c0.5,0.3,2.1,1.1,3.8,2.3
	c7.9-18.8,8.9-18.8,11-18.8c1.7,0,3,1.3,3,3c0,1-0.5,1.8-1.2,2.4c-1.3,2-5.6,11.6-9,19.8c-0.4,1.1-1.5,1.8-2.6,1.8
	C37.6,157.1,37.6,157.1,37.5,157.1z M47.4,136.1C47.4,136.1,47.4,136.1,47.4,136.1C47.4,136.1,47.4,136.1,47.4,136.1z M47.4,136.1
	C47.4,136.1,47.4,136.1,47.4,136.1C47.4,136.1,47.4,136.1,47.4,136.1z"/>
<path d="M37.5,114.8c-1.1,0-2.1-0.6-2.6-1.6c-0.5-0.9-3-2.7-4.9-3.7c-1.5-0.8-2.1-2.6-1.3-4c0.8-1.5,2.6-2.1,4-1.3
	c0.5,0.3,2.1,1.1,3.8,2.3c7.9-18.8,8.9-18.8,11-18.8c1.7,0,3,1.3,3,3c0,1-0.5,1.8-1.2,2.4c-1.3,2-5.6,11.6-9,19.8
	c-0.4,1.1-1.5,1.8-2.6,1.8C37.6,114.8,37.6,114.8,37.5,114.8z M47.4,93.8C47.4,93.8,47.4,93.8,47.4,93.8
	C47.4,93.8,47.4,93.8,47.4,93.8z M47.4,93.8C47.4,93.8,47.4,93.8,47.4,93.8C47.4,93.8,47.4,93.8,47.4,93.8z"/>
<path d="M37.5,199.4c-1.1,0-2.1-0.6-2.6-1.6c-0.5-0.9-3-2.7-4.9-3.7c-1.5-0.8-2.1-2.6-1.3-4s2.6-2.1,4-1.3c0.5,0.3,2.1,1.1,3.8,2.3
	c7.9-18.8,8.9-18.8,11-18.8c1.7,0,3,1.3,3,3c0,1-0.5,1.8-1.2,2.4c-1.3,2-5.6,11.6-9,19.8c-0.4,1.1-1.5,1.8-2.6,1.8
	C37.6,199.4,37.6,199.4,37.5,199.4z M47.4,178.4C47.4,178.4,47.4,178.4,47.4,178.4C47.4,178.4,47.4,178.4,47.4,178.4z M47.4,178.4
	C47.4,178.4,47.4,178.4,47.4,178.4C47.4,178.4,47.4,178.4,47.4,178.4z"/>
<path d="M148.8,10.9h-33.1v11h33.1c0.5,0,1,0.5,1,1v199.8c0,0.5-0.5,1-1,1H12c-0.5,0-1-0.5-1-1V22.9c0-0.5,0.5-1,1-1h33.1v-11H12
	c-6.6,0-12,5.4-12,12v199.8c0,6.6,5.4,12,12,12h136.8c6.6,0,12-5.4,12-12V22.9C160.8,16.3,155.4,10.9,148.8,10.9z"/>
</svg>
