<?xml version="1.0" encoding="utf-8"?>
<!-- Generator: Adobe Illustrator 22.1.0, SVG Export Plug-In . SVG Version: 6.00 Build 0)  -->
<svg version="1.1" id="Calque_1" xmlns="http://www.w3.org/2000/svg" xmlns:xlink="http://www.w3.org/1999/xlink" x="0px" y="0px"
	 viewBox="0 0 738.6 476.2" style="enable-background:new 0 0 738.6 476.2;" xml:space="preserve">
<path d="M724.2,322.5c-11.7,7.2-47.3,22.7-67,11.4c-11.7-6.8-17.8-22.7-17.8-47.3c0-26.5,6.1-43.2,18.5-50
	c20.1-11,54.5,4.9,66.2,12.1l14.4,9.1l0-158.8H611.9c8-17.8,17.7-47.9,4.8-71C606.5,9.5,584.1,0,550.8,0c-31.8,0-53.4,9.1-63.6,27.3
	c-13.2,23.1-3.5,53.9,4.4,71.7H229.3h-1.9l1.7,2.6c0.4,0.4,28.4,48.8,11.7,77.8c-8.3,14.5-26.9,22.1-54.5,22.5
	c-28,0-46.2-7.6-54.5-22.5c-16.3-29,11.4-77.4,11.7-77.8l1.5-3.1H0v377.7h142h3.4l-1.5-3.1c-0.4-0.4-28.4-48.8-11.7-77.8
	c8.3-14.5,26.9-22.1,54.5-22.5c28,0,46.2,7.6,54.5,22.5c16.3,29-11.4,77.4-11.7,77.8l-1.5,3.1h1.9h508.8v-162L724.2,322.5z
	 M719.7,456.9H378.6V345.6c17.8,8,48.8,17.4,71.9,4.5c18.2-10.2,27.3-31.8,27.3-63.6c0-31.8-9.1-53.4-27.3-63.6
	c-23.1-13.2-54.1-3.4-71.9,4.5V118.1h145l-8.3-14.4c-7.2-11.7-22.7-46.9-11.4-67c6.8-11.7,22.7-17.8,47.3-17.8
	c25.7,0,42.4,6.1,49.2,18.2c11.4,20.1-4.9,54.9-12.1,66.6l-8.7,14.4h140.1v107.1c-17.8-8-48.1-17.8-70.8-5.3
	c-18.9,10.2-28.4,32.9-28.4,66.6c0,31.8,9.1,53.4,27.3,63.6c23.1,13.2,54.1,3.4,71.9-4.5V456.9z"/>
</svg>
