<?xml version="1.0" encoding="utf-8"?>
<!-- Generator: Adobe Illustrator 16.0.0, SVG Export Plug-In . SVG Version: 6.00 Build 0)  -->
<!DOCTYPE svg PUBLIC "-//W3C//DTD SVG 1.1//EN" "http://www.w3.org/Graphics/SVG/1.1/DTD/svg11.dtd">
<svg version="1.1" id="Calque_1" xmlns="http://www.w3.org/2000/svg" xmlns:xlink="http://www.w3.org/1999/xlink" x="0px" y="0px"
	 width="595.315px" height="445.052px" viewBox="0.024 198.386 595.315 445.052"
	 enable-background="new 0.024 198.386 595.315 445.052" xml:space="preserve">
<g>
	<path d="M595.048,275.902c0-0.93-0.232-2.092-0.465-3.254c-1.162-9.763-5.348-13.017-18.131-16.969
		c-0.232,0-0.465-0.232-0.697-0.232c-3.486-3.951-4.184-9.297-3.254-16.038c0.465-3.486-0.232-6.973,0.232-10.46
		c0.93-8.135-2.789-12.319-10.461-14.179c-14.875-3.719-29.752-8.136-44.859-10.925c-14.877-2.557-29.521-4.184-43.932-4.881
		c-39.98-2.557-79.729,3.254-118.777,19.757c-18.363,7.671-34.867,19.525-51.602,30.45c-1.859,1.162-3.486,2.092-5.114,2.789
		c-1.627-0.697-3.255-1.627-5.114-2.789c-16.735-10.925-33.471-22.779-51.602-30.45c-39.283-16.038-79.03-21.849-119.242-19.524
		c-14.411,0.697-29.055,2.324-43.931,4.881c-15.109,2.557-29.985,7.206-44.861,10.925c-7.438,1.859-11.389,6.044-10.227,13.946
		c0.465,3.487-0.232,6.974,0.232,10.46c0.93,6.741,0.232,12.087-3.254,16.038c-0.232,0-0.465,0.232-0.697,0.232
		c-12.784,3.72-16.968,7.206-18.13,16.969c-0.465,1.162-0.465,2.324-0.465,3.254C-0.232,393.052,0,510.435,0.232,627.817
		c0,0.232,0,0.465,0.232,0.93c0,0.697,0,1.162,0,1.86c0.232,0,0.465,0,0.697,0c5.346,0,9.763,0,13.946,0c0.233,0,0.233,0,0.465,0
		c38.817,0,77.635,0,116.453,0c38.12,0,76.24,0,114.361,0.232c5.113,0,10.692,1.395,15.108,3.719
		c12.319,6.043,24.174,9.298,36.261,8.833c12.087,0.465,24.173-2.558,36.261-8.833c4.648-2.324,9.994-3.719,15.109-3.719
		c38.119,0,76.24-0.232,114.359-0.232c38.818,0,77.637,0,116.453,0c0.232,0,0.232,0,0.465,0c4.648,0,9.064,0,13.947,0
		c0.232,0,0.465,0,0.697,0c0-0.698,0-1.163,0-1.86c0.232-0.465,0.232-0.697,0.232-0.93
		C595.281,510.435,595.513,393.052,595.048,275.902z M407.468,569.94c-34.633,6.043-69.035,16.735-103.203,28.822
		c0-48.115,3.951-256.382,3.486-316.352c0-9.53,2.789-15.807,10.459-21.385c50.439-35.796,111.34-49.742,172.006-43.467
		c16.271,1.859,32.543,5.114,49.045,9.298c8.369,2.092,9.066,7.206,9.066,14.644c-0.232,107.62-0.232,215.24-0.232,322.86
		c0,3.254,0,6.741,0,10.925C499.98,560.642,453.492,561.107,407.468,569.94z M187.812,569.94
		c-45.791-8.833-92.511-9.298-140.859,5.578c0-4.184,0-7.671,0-10.925c0-107.62,0-215.24-0.232-322.86
		c0-7.205,0.697-12.319,9.065-14.644c16.271-4.184,32.774-7.438,49.045-9.298c60.667-6.043,121.566,7.671,172.006,43.467
		c7.67,5.578,10.692,11.854,10.459,21.385c-0.465,59.97,3.487,268.004,3.487,316.352
		C256.847,586.676,222.446,575.983,187.812,569.94z"/>
	<g>
		<path d="M524.851,276.135c-0.697,3.719-0.93,6.276-1.627,8.833c-0.465,1.395-1.395,2.557-2.557,4.648
			c-58.344-13.481-114.361-5.113-168.752,20.455c-2.324-3.719-4.184-6.974-6.975-11.622
			C402.82,269.859,461.859,261.723,524.851,276.135z"/>
		<path d="M524.851,313.325c-0.697,3.72-0.93,6.276-1.627,8.833c-0.465,1.395-1.395,2.557-2.557,4.648
			c-58.344-13.481-114.361-5.113-168.752,20.455c-2.324-3.719-4.184-6.974-6.975-11.622
			C402.82,306.817,461.859,298.914,524.851,313.325z"/>
		<path d="M524.851,350.283c-0.697,3.72-0.93,6.276-1.627,8.833c-0.465,1.395-1.395,2.557-2.557,4.648
			c-58.344-13.481-114.361-5.113-168.752,20.455c-2.324-3.719-4.184-6.974-6.975-11.622
			C402.82,344.008,461.859,335.872,524.851,350.283z"/>
		<path d="M524.851,387.473c-0.697,3.72-0.93,6.276-1.627,8.833c-0.465,1.395-1.395,2.557-2.557,4.648
			c-58.344-13.481-114.361-5.113-168.752,20.455c-2.324-3.719-4.184-6.973-6.975-11.622
			C402.82,380.966,461.859,373.062,524.851,387.473z"/>
		<path d="M524.851,424.432c-0.697,3.719-0.93,6.275-1.627,8.832c-0.465,1.395-1.395,2.558-2.557,4.649
			c-58.344-13.481-114.361-5.114-168.752,20.454c-2.324-3.719-4.184-6.973-6.975-11.622
			C402.82,418.156,461.859,410.02,524.851,424.432z"/>
		<path d="M524.851,461.623c-0.697,3.719-0.93,6.275-1.627,8.832c-0.465,1.395-1.395,2.558-2.557,4.649
			c-58.344-13.481-114.361-5.114-168.752,20.454c-2.324-3.719-4.184-6.973-6.975-11.622
			C402.82,455.114,461.859,447.211,524.851,461.623z"/>
		<path d="M524.851,498.581c-0.697,3.719-0.93,6.275-1.627,8.832c-0.465,1.396-1.395,2.558-2.557,4.649
			c-58.344-13.481-114.361-5.114-168.752,20.454c-2.324-3.719-4.184-6.973-6.975-11.622
			C402.82,492.304,461.859,484.169,524.851,498.581z"/>
	</g>
	<g>
		<path d="M79.495,276.135c0.697,3.719,0.93,6.276,1.627,8.833c0.465,1.395,1.395,2.557,2.557,4.648
			c58.342-13.481,114.361-5.113,168.752,20.455c2.324-3.719,4.184-6.974,6.973-11.622
			C201.293,269.859,142.253,261.723,79.495,276.135z"/>
		<path d="M79.495,313.325c0.697,3.72,0.93,6.276,1.627,8.833c0.465,1.395,1.395,2.557,2.557,4.648
			c58.342-13.481,114.361-5.113,168.752,20.455c2.324-3.719,4.184-6.974,6.973-11.622
			C201.293,306.817,142.253,298.914,79.495,313.325z"/>
		<path d="M79.495,350.283c0.697,3.72,0.93,6.276,1.627,8.833c0.465,1.395,1.395,2.557,2.557,4.648
			c58.342-13.481,114.361-5.113,168.752,20.455c2.324-3.719,4.184-6.974,6.973-11.622
			C201.293,344.008,142.253,335.872,79.495,350.283z"/>
		<path d="M79.495,387.473c0.697,3.72,0.93,6.276,1.627,8.833c0.465,1.395,1.395,2.557,2.557,4.648
			c58.342-13.481,114.361-5.113,168.752,20.455c2.324-3.719,4.184-6.973,6.973-11.622
			C201.293,380.966,142.253,373.062,79.495,387.473z"/>
		<path d="M79.495,424.432c0.697,3.719,0.93,6.275,1.627,8.832c0.465,1.395,1.395,2.558,2.557,4.649
			c58.342-13.481,114.361-5.114,168.752,20.454c2.324-3.719,4.184-6.973,6.973-11.622
			C201.293,418.156,142.253,410.02,79.495,424.432z"/>
		<path d="M79.495,461.623c0.697,3.719,0.93,6.275,1.627,8.832c0.465,1.395,1.395,2.558,2.557,4.649
			c58.342-13.481,114.361-5.114,168.752,20.454c2.324-3.719,4.184-6.973,6.973-11.622
			C201.293,455.114,142.253,447.211,79.495,461.623z"/>
		<path d="M79.495,498.581c0.697,3.719,0.93,6.275,1.627,8.832c0.465,1.396,1.395,2.558,2.557,4.649
			c58.342-13.481,114.361-5.114,168.752,20.454c2.324-3.719,4.184-6.973,6.973-11.622
			C201.293,492.304,142.253,484.169,79.495,498.581z"/>
	</g>
</g>
</svg>
