<?xml version="1.0" encoding="utf-8"?>
<!-- Generator: Adobe Illustrator 16.0.0, SVG Export Plug-In . SVG Version: 6.00 Build 0)  -->
<!DOCTYPE svg PUBLIC "-//W3C//DTD SVG 1.1//EN" "http://www.w3.org/Graphics/SVG/1.1/DTD/svg11.dtd">
<svg version="1.1" id="Calque_1" xmlns="http://www.w3.org/2000/svg" xmlns:xlink="http://www.w3.org/1999/xlink" x="0px" y="0px"
	 width="595.986px" height="454.41px" viewBox="0 193.914 595.986 454.41" enable-background="new 0 193.914 595.986 454.41"
	 xml:space="preserve">
<path d="M423.687,362.335h-14.828v-23.303c0-7.768-6.355-14.123-14.123-14.123h-9.887c-7.768,0-14.123,6.355-14.123,14.123v23.303
	H228.085v-23.303c0-7.768-6.355-14.123-14.123-14.123h-9.18c-7.768,0-14.123,6.355-14.123,14.123v23.303h-16.947L60.729,564.999
	v83.325h475.941v-83.325L423.687,362.335z"/>
<path d="M480.179,348.212c0-131.343-363.665-131.343-363.665,0H2.119c0-43.074,4.237-77.676,47.312-102.391
	c120.044-69.908,385.556-69.202,502.069,2.118c40.25,24.716,42.369,58.61,42.369,100.979L480.179,348.212L480.179,348.212z"/>
<path d="M0,383.519c0-8.474,7.062-15.535,15.535-15.535h86.856c8.474,0,15.535,7.062,15.535,15.535v38.838
	c0,8.475-7.062,15.535-15.535,15.535H15.535C7.062,437.892,0,430.832,0,422.357V383.519L0,383.519z"/>
<path d="M478.06,383.519c0-8.474,7.063-15.535,15.535-15.535h86.855c8.475,0,15.535,7.062,15.535,15.535v38.838
	c0,8.475-7.061,15.535-15.535,15.535h-86.855c-8.473,0-15.535-7.061-15.535-15.535V383.519L478.06,383.519z"/>
<g>
	<rect x="215.374" y="402.586" fill="#FFFFFF" width="28.246" height="28.246"/>
	<rect x="284.576" y="402.586" fill="#FFFFFF" width="28.246" height="28.246"/>
	<rect x="354.484" y="402.586" fill="#FFFFFF" width="28.246" height="28.246"/>
	<rect x="215.374" y="455.547" fill="#FFFFFF" width="28.246" height="28.245"/>
	<rect x="284.576" y="455.547" fill="#FFFFFF" width="28.246" height="28.245"/>
	<rect x="354.484" y="455.547" fill="#FFFFFF" width="28.246" height="28.245"/>
	<rect x="215.374" y="508.508" fill="#FFFFFF" width="28.246" height="28.245"/>
	<rect x="284.576" y="508.508" fill="#FFFFFF" width="28.246" height="28.245"/>
	<rect x="354.484" y="508.508" fill="#FFFFFF" width="28.246" height="28.245"/>
</g>
<circle display="none" fill="#FFFFFF" cx="297.993" cy="472.493" r="86.15"/>
<circle display="none" cx="297.993" cy="472.493" r="55.786"/>
</svg>
