<?xml version="1.0" encoding="utf-8"?>
<!-- Generator: Adobe Illustrator 16.0.0, SVG Export Plug-In . SVG Version: 6.00 Build 0)  -->
<!DOCTYPE svg PUBLIC "-//W3C//DTD SVG 1.1//EN" "http://www.w3.org/Graphics/SVG/1.1/DTD/svg11.dtd">
<svg version="1.1" id="logo_v2" xmlns="http://www.w3.org/2000/svg" xmlns:xlink="http://www.w3.org/1999/xlink" x="0px" y="0px"
	 width="594.871px" height="594.871px" viewBox="0.205 123.51 594.871 594.871"
	 enable-background="new 0.205 123.51 594.871 594.871" xml:space="preserve">
<circle cx="297.199" cy="420.946" r="274.27"/>
<circle id="Ellipse_2_copie" fill="none" stroke="#000000" stroke-width="4" cx="297.64" cy="420.945" r="295.436"/>
<path fill="#FFFFFF" d="M334.679,554.994h-0.881C333.798,554.994,334.24,554.994,334.679,554.994z"/>
<path fill="#FFFFFF" d="M333.798,554.994L333.798,554.994L333.798,554.994z"/>
<path fill="#FFFFFF" d="M237.23,554.994h-0.882C236.348,554.994,236.348,554.994,237.23,554.994z"/>
<path fill="#FFFFFF" d="M235.907,554.994L235.907,554.994L235.907,554.994z"/>
<path fill="#FFFFFF" d="M261.042,379.055h-10.583v168.442h0.441c3.528-3.528,7.055-8.819,10.142-16.315V379.055z"/>
<path fill="#FFFFFF" d="M360.255,379.055h-10.584v167.561c3.527-3.969,7.496-10.143,10.584-19.402V379.055z"/>
<path fill="#FFFFFF" d="M210.773,338.047c-56.441,0.441-90.395,141.104-92.158,147.718l0,0l0,0l0,0l0,0l7.496,7.496
	c0,0,4.85-4.851,13.229-11.023l0,0l0,0c2.205-1.764,4.85-3.527,7.496-5.732l52.473-39.686c-27.78,8.819-52.032,25.135-66.142,36.599
	c12.346-44.977,42.331-124.788,78.048-125.229c36.599-0.44,151.686-0.44,215.623-0.882c10.143-2.646,21.166-6.173,31.748-10.582
	C413.169,337.165,255.309,337.606,210.773,338.047z"/>
</svg>
