<?xml version="1.0" encoding="utf-8"?>
<!-- Generator: Adobe Illustrator 16.0.0, SVG Export Plug-In . SVG Version: 6.00 Build 0)  -->
<!DOCTYPE svg PUBLIC "-//W3C//DTD SVG 1.1//EN" "http://www.w3.org/Graphics/SVG/1.1/DTD/svg11.dtd">
<svg version="1.1" id="Calque_1" xmlns="http://www.w3.org/2000/svg" xmlns:xlink="http://www.w3.org/1999/xlink" x="0px" y="0px"
	 width="595.833px" height="511.844px" viewBox="0 165.023 595.833 511.844" enable-background="new 0 165.023 595.833 511.844"
	 xml:space="preserve">
<circle cx="205.405" cy="259.079" r="94.056"/>
<path d="M375.312,495.128H222.699v-24.575c0-61.288-50.062-111.351-111.35-111.351C50.062,359.506,0,409.567,0,470.552v206.013
	h222.699V564.001h-63.412l-75.851-97.09l7.282-5.461l72.817,93.448h58.86l0,0h152.917c16.383,0,30.037-13.35,30.037-30.037
	C405.349,508.175,392,495.128,375.312,495.128z"/>
<path d="M530.656,600.409H294.303c-5.461,0-10.012-4.551-10.012-10.012v-2.731c0-5.461,4.551-10.012,10.012-10.012h236.656
	c5.461,0,10.012,4.551,10.012,10.012v2.731C540.667,595.858,536.117,600.409,530.656,600.409z"/>
<path d="M518.822,586.756l54.311-230.284c1.213-5.461,6.674-8.799,12.135-7.585l2.732,0.606c5.461,1.214,8.797,6.675,7.584,12.137
	l-54.309,230.284c-1.215,5.461-6.676,8.799-12.137,7.585l-2.73-0.606C520.947,597.375,517.609,591.914,518.822,586.756z"/>
<path d="M558.265,676.867H266.39c-10.619,0-19.418-8.799-19.418-19.418v-21.541c0-10.619,8.799-19.418,19.418-19.418h291.875
	c10.619,0,19.418,8.799,19.418,19.418v21.541C577.683,668.068,569.187,676.867,558.265,676.867z"/>
</svg>
